<svg xmlns="http://www.w3.org/2000/svg" xmlns:xlink="http://www.w3.org/1999/xlink" width="1920" zoomAndPan="magnify" viewBox="0 0 1440 809.999993" height="1080" preserveAspectRatio="xMidYMid meet" version="1.0"><defs><clipPath id="10d1365f9f"><path d="M 0 211 L 1440 211 L 1440 668.558594 L 0 668.558594 Z M 0 211 " clip-rule="nonzero"/></clipPath><clipPath id="b6f50737eb"><path d="M 0 277 L 1440 277 L 1440 699.167969 L 0 699.167969 Z M 0 277 " clip-rule="nonzero"/></clipPath><clipPath id="2874262b11"><path d="M 0 357 L 1440 357 L 1440 779.410156 L 0 779.410156 Z M 0 357 " clip-rule="nonzero"/></clipPath></defs><rect x="-144" width="1728" fill="#ffffff" y="-80.999999" height="971.999992" fill-opacity="1"/><rect x="-144" width="1728" fill="#faf7f3" y="-80.999999" height="971.999992" fill-opacity="1"/><g clip-path="url(#10d1365f9f)"><path fill="#b9a294" d="M 1382.480469 444.082031 C 1348.160156 459.492188 1309.695312 462.824219 1272.09375 462.96875 C 1224.472656 463.160156 1176.46875 458.558594 1131.074219 444.128906 C 999.09375 402.214844 902.632812 282.625 770.316406 241.738281 C 688.519531 216.453125 596.96875 224.503906 520.828125 263.617188 C 463.429688 293.121094 416.097656 338.511719 364.882812 377.792969 C 313.664062 417.074219 254.613281 451.609375 190.097656 453.191406 C 126.441406 454.746094 65.929688 423.6875 16.558594 383.449219 C -32.8125 343.234375 -73.671875 293.71875 -119.519531 249.527344 C -135.867188 233.757812 -153.886719 218.105469 -176.007812 213.003906 C -216.796875 203.558594 -253.992188 232.007812 -280.738281 266.46875 L -280.738281 668.574219 L 1538.117188 668.574219 L 1538.117188 343.089844 C 1521.339844 348.746094 1505.136719 357.351562 1490.804688 367.246094 C 1454.304688 392.460938 1422.957031 425.890625 1382.480469 444.082031 Z M 1382.480469 444.082031 " fill-opacity="1" fill-rule="nonzero"/></g><g clip-path="url(#b6f50737eb)"><path fill="#d5bdaf" d="M 1394.445312 492.207031 C 1362.761719 506.433594 1327.253906 509.507812 1292.542969 509.640625 C 1248.582031 509.816406 1204.265625 505.570312 1162.363281 492.25 C 1040.523438 453.554688 951.472656 343.15625 829.324219 305.410156 C 753.816406 282.070312 669.300781 289.503906 599.011719 325.609375 C 546.023438 352.84375 502.328125 394.75 455.046875 431.011719 C 407.769531 467.273438 353.253906 499.152344 293.695312 500.613281 C 234.933594 502.050781 179.070312 473.378906 133.496094 436.230469 C 87.917969 399.105469 50.195312 353.398438 7.871094 312.601562 C -7.214844 298.042969 -23.851562 283.597656 -44.273438 278.882812 C -81.929688 270.167969 -116.265625 296.429688 -140.957031 328.242188 L -140.957031 699.445312 L 1538.121094 699.445312 L 1538.121094 398.972656 C 1522.632812 404.195312 1507.675781 412.136719 1494.445312 421.277344 C 1460.753906 444.550781 1431.8125 475.414062 1394.445312 492.207031 Z M 1394.445312 492.207031 " fill-opacity="1" fill-rule="nonzero"/></g><g clip-path="url(#2874262b11)"><path fill="#faf7f3" d="M 1452.816406 572.449219 C 1421.132812 586.675781 1385.625 589.75 1350.910156 589.882812 C 1306.949219 590.0625 1262.636719 585.8125 1220.730469 572.496094 C 1098.894531 533.800781 1009.84375 423.398438 887.695312 385.65625 C 812.183594 362.3125 727.667969 369.746094 657.382812 405.855469 C 604.394531 433.089844 560.699219 474.992188 513.417969 511.253906 C 466.140625 547.515625 411.625 579.398438 352.066406 580.859375 C 293.304688 582.296875 237.441406 553.621094 191.863281 516.476562 C 146.289062 479.351562 108.566406 433.644531 66.242188 392.84375 C 51.152344 378.289062 34.515625 363.839844 14.097656 359.128906 C -23.558594 350.410156 -57.898438 376.671875 -82.585938 408.488281 L -82.585938 779.6875 L 1596.488281 779.6875 L 1596.488281 479.21875 C 1581.003906 484.441406 1566.046875 492.382812 1552.816406 501.519531 C 1519.121094 524.792969 1490.183594 555.65625 1452.816406 572.449219 Z M 1452.816406 572.449219 " fill-opacity="1" fill-rule="nonzero"/></g><path fill="#e3d5ca" d="M 1513.539062 659.976562 C 1481.585938 674.324219 1445.773438 677.425781 1410.761719 677.558594 C 1366.421875 677.738281 1321.730469 673.453125 1279.464844 660.023438 C 1156.582031 620.996094 1066.769531 509.648438 943.574219 471.582031 C 867.417969 448.039062 782.175781 455.535156 711.285156 491.953125 C 657.84375 519.421875 613.773438 561.683594 566.089844 598.257812 C 518.402344 634.828125 463.421875 666.984375 403.351562 668.457031 C 344.085938 669.90625 287.746094 640.988281 241.777344 603.523438 C 195.8125 566.078125 157.765625 519.980469 115.078125 478.832031 C 99.863281 464.148438 83.082031 449.578125 62.484375 444.824219 C 24.507812 436.035156 -10.125 462.519531 -35.027344 494.609375 L -35.027344 868.992188 L 1658.445312 868.992188 L 1658.445312 565.945312 C 1642.828125 571.210938 1627.742188 579.222656 1614.398438 588.4375 C 1580.414062 611.914062 1551.226562 643.039062 1513.539062 659.976562 Z M 1513.539062 659.976562 " fill-opacity="1" fill-rule="nonzero"/></svg>